<svg xmlns="http://www.w3.org/2000/svg" width="51.38" height="39.272" viewBox="0 0 51.38 39.272">
  <path id="Icon_awesome-car" data-name="Icon awesome-car" d="M47.228,15.079H41.572L40,11.15A10.526,10.526,0,0,0,30.179,4.5h-12A10.529,10.529,0,0,0,8.36,11.15L6.789,15.079H1.134a1.133,1.133,0,0,0-1.1,1.408L.6,18.755a1.133,1.133,0,0,0,1.1.859H3.6a6,6,0,0,0-2.086,4.534v4.534a6,6,0,0,0,1.511,3.961v5.107a3.023,3.023,0,0,0,3.023,3.023H9.068a3.023,3.023,0,0,0,3.023-3.023V34.726H36.271v3.023a3.023,3.023,0,0,0,3.023,3.023h3.023a3.023,3.023,0,0,0,3.023-3.023V32.642a5.992,5.992,0,0,0,1.511-3.961V24.147a6.005,6.005,0,0,0-2.085-4.534h1.9a1.133,1.133,0,0,0,1.1-.859l.567-2.267a1.134,1.134,0,0,0-1.1-1.408ZM13.973,13.4a4.534,4.534,0,0,1,4.21-2.85h12a4.534,4.534,0,0,1,4.21,2.85L36.271,18.1H12.09L13.973,13.4ZM9.068,28.662a2.851,2.851,0,0,1-3.023-3.013,2.851,2.851,0,0,1,3.023-3.013c1.814,0,4.534,2.712,4.534,4.52S10.881,28.662,9.068,28.662Zm30.226,0c-1.814,0-4.534.3-4.534-1.507s2.72-4.52,4.534-4.52a2.851,2.851,0,0,1,3.023,3.013,2.851,2.851,0,0,1-3.023,3.013Z" transform="translate(1.509 -3)" fill="none" stroke="#ff4500" stroke-width="3"/>
</svg>
